<svg width="201" height="24" fill="none" xmlns="http://www.w3.org/2000/svg"><path d="M9.359.383c1.51 0 2.933.132 4.267.397 1.335.265 2.502.633 3.502 1.104 1.001.47 1.79 1.04 2.37 1.707.578.657.868 1.383.868 2.177v11.714c0 .794-.29 1.525-.868 2.192-.58.657-1.369 1.222-2.37 1.692-1 .471-2.168.84-3.502 1.104a21.895 21.895 0 0 1-4.267.397c-.844 0-1.707-.029-2.59-.088a65.612 65.612 0 0 1-2.575-.25c-.824-.108-1.6-.23-2.325-.368A18.407 18.407 0 0 1 0 21.72V1.53c.52-.157 1.143-.304 1.869-.441A34.419 34.419 0 0 1 4.194.736a41.661 41.661 0 0 1 2.575-.25 33.402 33.402 0 0 1 2.59-.103Zm.059 3.325c-.893 0-1.668.03-2.325.089a15.67 15.67 0 0 0-1.693.206c-.47.078-.863.166-1.177.264a15.02 15.02 0 0 0-.75.236v14.244c.196.079.446.162.75.25.314.089.707.177 1.177.265.471.079 1.035.147 1.693.206.657.05 1.432.074 2.325.074 1.099 0 2.084-.089 2.958-.265.882-.177 1.623-.412 2.222-.706.608-.295 1.074-.633 1.397-1.016.324-.392.486-.8.486-1.221V6.916c0-.422-.162-.824-.486-1.206-.323-.393-.79-.736-1.397-1.03-.599-.295-1.34-.53-2.223-.707-.873-.176-1.858-.265-2.957-.265ZM34.522 6.033c.5 0 1.104.025 1.81.074.706.049 1.437.137 2.192.265.766.117 1.521.29 2.267.515a8.828 8.828 0 0 1 2 .838c.6.344 1.08.76 1.443 1.251.373.481.56 1.05.56 1.707v4.974H27.93v3.767c1.186.167 2.33.285 3.428.353 1.099.06 2.153.088 3.164.088 1.54 0 2.933-.058 4.179-.176 1.256-.118 2.34-.25 3.252-.397a31.407 31.407 0 0 0 2.84-.574v3.267a66.331 66.331 0 0 1-10.271.824c-1.53 0-2.919-.04-4.164-.118a66.362 66.362 0 0 1-3.208-.294 39.067 39.067 0 0 1-2.811-.412V10.683c0-.657.162-1.226.486-1.707a4.27 4.27 0 0 1 1.294-1.25 7.658 7.658 0 0 1 1.855-.84 14.566 14.566 0 0 1 2.192-.514 22.319 22.319 0 0 1 2.252-.265c.755-.05 1.456-.074 2.104-.074Zm-6.592 7.27h13.214v-1.707c0-.403-.098-.746-.295-1.03a2.394 2.394 0 0 0-.794-.736 4.385 4.385 0 0 0-1.148-.471 8.483 8.483 0 0 0-1.354-.28 13.78 13.78 0 0 0-1.427-.132 32.24 32.24 0 0 0-2.767 0c-.5.02-1.005.064-1.515.132-.51.069-1 .167-1.472.295a4.96 4.96 0 0 0-1.25.485 2.569 2.569 0 0 0-.869.736c-.216.284-.323.628-.323 1.03v1.678ZM58.243 6.033c1.246 0 2.408.04 3.487.118 1.08.069 2.031.142 2.855.22.952.109 1.83.221 2.634.34v2.53c-.382.461-.878.981-1.486 1.56a51.724 51.724 0 0 1-2.016 1.81 81.377 81.377 0 0 1-2.37 1.972 78.492 78.492 0 0 1-2.604 1.972 94.187 94.187 0 0 1-2.663 1.883 58.366 58.366 0 0 1-2.546 1.663c.314.03.667.054 1.06.074.402.01.774.014 1.118.014.696 0 1.417-.014 2.163-.044a78.6 78.6 0 0 0 2.207-.118c.726-.059 1.432-.122 2.12-.19.686-.08 1.319-.158 1.898-.236l.117-.84a35.343 35.343 0 0 0 .177-1.486c.02-.215.03-.392.03-.53h3.384c0 .119-.01.3-.03.545-.01.246-.03.53-.059.854-.029.324-.063.672-.103 1.045-.029.372-.068.74-.117 1.103-.04.363-.084.711-.133 1.045-.049.324-.098.599-.147.824-.755.118-1.535.22-2.34.31-.794.078-1.584.141-2.369.19a102 102 0 0 1-2.28.118c-.736.02-1.408.03-2.017.03-1.236 0-2.393-.035-3.472-.103a92.442 92.442 0 0 1-2.855-.221 61.56 61.56 0 0 1-2.649-.324v-2.855a97.506 97.506 0 0 0 3.855-2.354 106.325 106.325 0 0 0 3.87-2.605 78.154 78.154 0 0 0 3.635-2.751 45.855 45.855 0 0 0 3.15-2.767 29.078 29.078 0 0 0-3.297-.176c-.667 0-1.349.014-2.045.044-.687.03-1.369.068-2.046.117a54.195 54.195 0 0 0-3.738.397c-.048.285-.093.575-.132.869-.04.284-.078.56-.118.824-.029.265-.053.51-.073.736-.02.216-.03.397-.03.544h-3.355c0-.176.015-.495.045-.956.039-.461.088-.967.147-1.516l.176-1.663c.069-.55.133-.995.192-1.339.755-.127 1.525-.23 2.31-.309a49.18 49.18 0 0 1 2.31-.206 44.03 44.03 0 0 1 2.178-.118c.706-.029 1.364-.044 1.972-.044Z" fill="#000"/><path d="M83.043 0c1.481 0 2.884.132 4.208.397 1.325.255 2.477.618 3.459 1.09.99.47 1.775 1.034 2.354 1.691.579.648.868 1.364.868 2.149v2.59h-3.885V6.475c0-.422-.162-.824-.485-1.207-.324-.392-.79-.73-1.398-1.015-.599-.295-1.33-.525-2.193-.692-.863-.176-1.84-.265-2.928-.265-1.05 0-2.006.084-2.87.25-.863.157-1.604.378-2.222.663-.618.284-1.098.623-1.442 1.015-.333.382-.5.8-.5 1.25v10.39c0 .431.167.838.5 1.221.344.383.824.716 1.442 1 .618.275 1.36.496 2.222.663.864.157 1.82.235 2.87.235 1.089 0 2.065-.083 2.928-.25.864-.177 1.594-.407 2.193-.692.608-.284 1.074-.613 1.398-.985.323-.383.485-.78.485-1.192v-1.472h3.885v2.59c0 .52-.132 1.015-.397 1.486a4.67 4.67 0 0 1-1.119 1.28c-.47.393-1.04.746-1.706 1.06-.658.304-1.394.569-2.208.795-.804.215-1.667.382-2.59.5-.922.118-1.878.176-2.87.176-.99 0-1.947-.058-2.869-.176a20.1 20.1 0 0 1-2.604-.5c-.805-.226-1.54-.49-2.207-.795a8.434 8.434 0 0 1-1.707-1.06 4.776 4.776 0 0 1-1.104-1.28 2.987 2.987 0 0 1-.397-1.486V5.327c0-.52.132-1.015.397-1.486.265-.471.633-.903 1.103-1.295a8.435 8.435 0 0 1 1.708-1.06 13.23 13.23 0 0 1 2.207-.794 18.542 18.542 0 0 1 2.604-.515A22.65 22.65 0 0 1 83.043 0ZM107.676 5.768c.824 0 1.643.04 2.458.118a17.84 17.84 0 0 1 2.369.383c.755.176 1.461.397 2.119.662a7.107 7.107 0 0 1 1.707.956c.49.373.873.805 1.147 1.295a3.2 3.2 0 0 1 .412 1.619v7.622c0 .53-.137 1.016-.412 1.457-.274.442-.657.839-1.147 1.192a7.765 7.765 0 0 1-1.707.898c-.658.255-1.364.466-2.119.633-.756.166-1.545.289-2.369.367a23.064 23.064 0 0 1-4.915 0 19.67 19.67 0 0 1-2.355-.367 14.522 14.522 0 0 1-2.119-.633 8.23 8.23 0 0 1-1.707-.898 4.42 4.42 0 0 1-1.133-1.177 2.73 2.73 0 0 1-.412-1.472v-7.622c0-.598.138-1.138.412-1.619.275-.49.653-.922 1.133-1.295a7.501 7.501 0 0 1 1.707-.956 14.525 14.525 0 0 1 2.119-.662c.756-.177 1.54-.304 2.355-.383a25.898 25.898 0 0 1 2.457-.118Zm-6.445 11.714c0 .45.186.843.559 1.177.383.324.878.598 1.486.824.609.216 1.295.378 2.06.485.775.108 1.555.162 2.34.162.824 0 1.619-.058 2.384-.176a10.922 10.922 0 0 0 2.06-.5c.599-.226 1.074-.5 1.427-.825.363-.333.545-.716.545-1.147V11.36c0-.422-.182-.8-.545-1.133-.353-.343-.828-.628-1.427-.853a9.545 9.545 0 0 0-2.06-.53 14.483 14.483 0 0 0-2.384-.191c-.785 0-1.565.058-2.34.176a9.915 9.915 0 0 0-2.06.5c-.608.226-1.103.51-1.486.854-.373.334-.559.726-.559 1.177v6.122ZM121.979 10.654a1.78 1.78 0 0 0-.279-.795 2.258 2.258 0 0 0-.456-.53 2.638 2.638 0 0 0-.618-.412l1.648-2.884c.363.128.726.3 1.089.515.304.187.622.427.956.721.343.285.643.638.898 1.06.49-.314.99-.608 1.501-.883.52-.285 1.059-.53 1.618-.736a11.599 11.599 0 0 1 1.781-.485c.628-.128 1.3-.192 2.016-.192 1.511 0 2.806.128 3.885.383 1.089.245 1.976.618 2.663 1.118.697.49 1.207 1.104 1.53 1.84.324.735.486 1.594.486 2.575v10.86h-3.855V12.86c0-.55-.074-1.02-.221-1.413a2.969 2.969 0 0 0-.603-1.015 2.98 2.98 0 0 0-.869-.692 4.48 4.48 0 0 0-1.044-.397 5.759 5.759 0 0 0-1.089-.191c-.373-.04-.726-.059-1.06-.059a11.491 11.491 0 0 0-3.414.5c-.51.147-.991.324-1.442.53-.451.206-.873.422-1.265.647V22.81h-3.856V10.654ZM150.144 5.827h3.738V8.3h-3.738v14.51h-3.502V8.299h-2.766V5.827h2.766V.707h3.502v5.12ZM173.895 16.805a5.5 5.5 0 0 0-.913-.633 6.414 6.414 0 0 0-1.339-.544c-.53-.167-1.162-.3-1.898-.398-.726-.108-1.58-.162-2.561-.162-.873 0-1.702.02-2.486.06-.775.029-1.457.127-2.046.293-.588.158-1.054.413-1.398.766-.343.353-.515.843-.515 1.471v1.884a39.579 39.579 0 0 0 6.328.47c1.02 0 2.104-.034 3.252-.102a31.622 31.622 0 0 0 3.576-.457v-2.648Zm-6.622-10.772c.49 0 1.084.025 1.78.074.697.049 1.423.137 2.178.265.756.117 1.501.284 2.237.5.745.206 1.413.48 2.001.824.599.334 1.079.736 1.442 1.207.363.47.545 1.025.545 1.662v11.39c-.824.167-1.756.31-2.796.427a66.53 66.53 0 0 1-3.193.294 58.472 58.472 0 0 1-4.135.133c-1.511 0-3.12-.064-4.827-.192a57.994 57.994 0 0 1-5.327-.662v-5.297c0-.57.133-1.065.397-1.487.275-.431.648-.8 1.119-1.103a6.66 6.66 0 0 1 1.663-.75 15.104 15.104 0 0 1 2.06-.472 21.128 21.128 0 0 1 2.295-.235c.795-.05 1.59-.074 2.384-.074 1.207 0 2.232.079 3.076.236.853.147 1.559.309 2.119.485.647.216 1.182.457 1.604.722v-2.384c0-.403-.099-.746-.295-1.03a2.396 2.396 0 0 0-.794-.736 4.352 4.352 0 0 0-1.148-.486 9.736 9.736 0 0 0-1.354-.294 13.827 13.827 0 0 0-1.442-.133c-.481-.02-.932-.029-1.354-.029-.441 0-.912.015-1.412.044-.501.02-1.001.064-1.501.133-.491.068-.967.166-1.428.294-.451.118-.853.28-1.206.485a2.763 2.763 0 0 0-.854.751c-.206.284-.309.628-.309 1.03l-3.649-.942c0-.657.162-1.226.485-1.707.324-.49.751-.907 1.281-1.25a7.638 7.638 0 0 1 1.854-.84 14.16 14.16 0 0 1 2.163-.514 22.318 22.318 0 0 1 2.251-.265c.746-.05 1.442-.074 2.09-.074ZM191.406 6.033c1.167 0 2.305.074 3.414.221 1.108.137 2.104.378 2.987.721.883.334 1.609.79 2.178 1.369.569.578.907 1.3 1.015 2.163l-3.414.941c0-.51-.176-.931-.53-1.265-.343-.343-.804-.608-1.383-.795a8.934 8.934 0 0 0-1.972-.412 21.9 21.9 0 0 0-4.547 0 8.897 8.897 0 0 0-1.986.398c-.579.186-1.05.446-1.413.78-.353.333-.53.765-.53 1.294v1.796H201v5.091c0 .579-.128 1.094-.383 1.545a3.829 3.829 0 0 1-1.059 1.163 7.033 7.033 0 0 1-1.604.838c-.608.226-1.27.408-1.987.545-.706.137-1.451.235-2.236.294a30.67 30.67 0 0 1-2.325.089 28.02 28.02 0 0 1-3.444-.206c-1.108-.148-2.104-.388-2.987-.722-.883-.343-1.609-.799-2.178-1.368-.559-.579-.888-1.305-.986-2.178l3.414-.942c0 .54.177.976.53 1.31.363.334.834.594 1.413.78a9.51 9.51 0 0 0 1.986.383c.746.058 1.496.088 2.252.088.785 0 1.55-.035 2.295-.103a9.58 9.58 0 0 0 1.972-.398c.579-.196 1.04-.456 1.383-.78.354-.333.53-.76.53-1.28v-1.795h-15.775v-5.091c0-.58.128-1.09.383-1.53a3.672 3.672 0 0 1 1.045-1.163 6.401 6.401 0 0 1 1.589-.839 11.58 11.58 0 0 1 1.972-.56 19.857 19.857 0 0 1 2.237-.293 31.64 31.64 0 0 1 2.369-.089Z" fill="#149F59"/></svg>